<?xml version="1.0" encoding="utf-8"?>
<svg xmlns="http://www.w3.org/2000/svg" width="344" height="128">
<path d="m68 8C37.07 8 12 33.07 12 64c0 30.93 25.07 56 56 56h44c4.42 0 8-3.58 8-8V64c-0.01-6.44-1.73-15.81-8.68-16H68c-8.83 0-16 7.17-16 16s7.17 16 16 16h20c2.21 0 4 1.79 4 4 0 2.21-1.79 4-4 4H68c-13.25 0-24-10.74-24-24s10.75-24 24-24h43.82c2.21 0 4-1.79 4-4 0-0.58-0.13-1.15-0.37-1.68 0 0 0-0.01-0.01-0.01C105.29 18.08 87.44 8 68 8z"/>
<path d="m128 8h32v112h-32z"/>
<path d="m168 8v32h44c2.21 0 4 1.79 4 4s-1.79 4-4 4h-44v72h32V80h12c15.62 0 28.92-9.95 33.9-23.86-2.46-8.17-2.36-16.74 0-24.28C240.92 17.95 227.62 8 212 8z"/>
<path d="m284 8c-19.88 0-36 16.12-36 36 0 19.88 16.12 36 36 36h16c2.21 0 4 1.79 4 4 0 2.21-1.79 4-4 4h-33.23c-8.16 0-14.77 7.16-14.77 16s6.61 16 14.77 16H300c19.88 0 36-16.12 36-36s-16.12-36-36-36h-16c-2.21 0-4-1.79-4-4 0-2.21 1.79-4 4-4h33.23c8.16 0 14.77-7.16 14.77-16s-6.61-16-14.77-16z"/>
</svg>
